# xmcd
#
# Track frame offsets:
#	182
#	19287
#	33155
#	45527
#	60025
#	77785
#	90650
#	106042
#	123415
#	139085
#	153355
#	166347
#	178275
#	191995
#	210762
#	229377
#	244680
#	258685
#	272687
#	288680
#
# Disc length: 4049
#
# Revision: 2
# Processed by: cddbd v1.5.1PL0 Copyright (c) Steve Scherf et al.
# Submitted via: CDRider 2.0
# Normalized: r1:DSETVAR1,TDELIM( - )
#
DISCID=140fcf14
DTITLE=Various Artist - For Country Lovers (The Best of Today's Romatic Favorites)
DYEAR=1991
DGENRE=Country
TTITLE0=Anne Murray - NOW AND FOREER
TTITLE1=Larry Gatlin and the Gatlin Brothers - HOUSTON (Means I'm One Day Closer to You)
TTITLE2=Tanya Tucker - STRONG ENOUGH TO BEND
TTITLE3=T. Graham Brown - HELL AND HIGH WATER
TTITLE4=Marie Osmond/Dan Seals - MEET ME IN MONTANA
TTITLE5=Michael Martin Murphey - WHATS FOREVER FOR
TTITLE6=Crystal Gayle - WHEN I DREAM
TTITLE7=Dan Seals - LOVE ON ARRIVAL
TTITLE8=Don Williams - THEN ITS LOVE
TTITLE9=Mel McDaniel - I CALL IT LOVE
TTITLE10=Barbara Mandrell - I WISH THAT I COULD FALL IN LOVE TODAY
TTITLE11=Sawyer Brown - THIS MISSIN' YOU HEART OF MINE
TTITLE12=Dottie West - WHAT ARE WE DOIN' IN LOVE
TTITLE13=Gary Morris - MILES ACROSS THE BEDROOM
TTITLE14=Juice Newton - THE SWEETEST THING
TTITLE15=Eddy Raven - ROCK ME IN THE RHYTHM OF YOUR LOVE
TTITLE16=Glen Campbell - WICHTA LINEMAN
TTITLE17=Merle Haggard - ALWAYS WANTING YOU
TTITLE18=Billie Jo Spears - BLANKET ON THE GROUND
TTITLE19=Gene Watson - LOVE IN THE HOT AFTERNOON
EXTD=
EXTT0=
EXTT1=
EXTT2=
EXTT3=
EXTT4=
EXTT5=
EXTT6=
EXTT7=
EXTT8=
EXTT9=
EXTT10=
EXTT11=
EXTT12=
EXTT13=
EXTT14=
EXTT15=
EXTT16=
EXTT17=
EXTT18=
EXTT19=
PLAYORDER=
